PathFileType	4	(X/Y/Z)	8_coords_data.trc
DataRate	CameraRate	NumFrames	NumMarkers	Units	OrigDataRate	OrigDataStartFrame	OrigNumFrames
30.0	30.0	6	21	m	30.0	43	53
Frame#	Time	THUMB_TIP	THUMB_IP	THUMB_MCP	THUMB_CMC	INDEX_TIP	INDEX_DIP	INDEX_PIP	INDEX_MCP	MIDDLE_TIP	MIDDLE_DIP	MIDDLE_PIP	MIDDLE_MCP	RING_TIP	RING_DIP	RING_PIP	RING_MCP	PINKY_TIP	PINKY_DIP	PINKY_PIP	PINKY_MCP	WRIST
X1	Y1	Z1	X2	Y2	Z2	X3	Y3	Z3	X4	Y4	Z4	X5	Y5	Z5	X6	Y6	Z6	X7	Y7	Z7	X8	Y8	Z8	X9	Y9	Z9	X10	Y10	Z10	X11	Y11	Z11	X12	Y12	Z12	X13	Y13	Z13	X14	Y14	Z14	X15	Y15	Z15	X16	Y16	Z16	X17	Y17	Z17	X18	Y18	Z18	X19	Y19	Z19	X20	Y20	Z20	X21	Y21	Z21
41	1.3999999999999937	0.49823823689470426	-0.019449651258027667	-0.16813089811429932	0.49558299668332495	-0.02417007633770618	-0.14580003860359045	0.4853096003962486	-0.031313383257416505	-0.11730002991974084	0.47965722842795655	-0.0316808836933028	-0.07305293244926614	0.5609072383335003	0.05165171272457314	-0.16567985737471347	0.5512302707483433	0.03973778168749931	-0.15606660893312677	0.5352978699570617	0.026124885737370818	-0.14217929451035416	0.510919134529867	0.0027043751760834622	-0.11627962196378566	0.572376035735965	0.07482190090191054	-0.14092929218581224	0.562494777837847	0.06157350346554835	-0.1335238409693725	0.5428366256909737	0.04413666928133053	-0.12091735780385499	0.5162472626199741	0.015148057670886894	-0.09973212498999576	0.5746548882825604	0.077665380411853	-0.11140673017517047	0.5628954214120951	0.06571259961706533	-0.10478510120684334	0.5456226952968861	0.05006683626313657	-0.09600768697360623	0.5231141963179626	0.01952791040769919	-0.08202690318613887	0.5724597984082723	0.07007997086857709	-0.07739261056104874	0.560899879253781	0.05811919481901784	-0.07335428102596675	0.5461156385055272	0.04380264030888281	-0.0691980193094715	0.5241153418210209	0.016066689496648134	-0.06229965505879548	0.462283081001861	-0.023011742144276925	-0.051989820119430985
42	1.4333333333333271	0.49832579590152226	-0.019341139443084354	-0.16810744786455528	0.49563530427171276	-0.02409141925342162	-0.14578714104512674	0.4853555626754896	-0.03126091343174964	-0.11729599740465829	0.4796776545721768	-0.03164141945496357	-0.07305227949198018	0.5609360985269126	0.05179432834866027	-0.16557052735087244	0.5511947466589996	0.03991323323233287	-0.1559816982971094	0.5352222560008806	0.026318507583721007	-0.14212266479129543	0.5108940461333605	0.002807970616299338	-0.1162570708459516	0.5725757408172781	0.07479170659189305	-0.14075418220242764	0.5625977217087602	0.061603269891590595	-0.13337148133674415	0.542828109446655	0.04425097890127394	-0.12082277708517289	0.5162159850314589	0.015245164269664047	-0.0996897348842305	0.5748377686592936	0.07758874914290259	-0.11125881873104954	0.5630034750753582	0.0656996891801439	-0.10465580816228978	0.5456499311819649	0.05012401057825977	-0.09591322676828024	0.5230898909808176	0.01961192897565367	-0.08195692724446163	0.5726299824397941	0.07004648901735022	-0.07705522259034148	0.5609955791681972	0.05813423582640587	-0.073087996301271	0.5461384213217241	0.0438702367251631	-0.06901182047523957	0.5240659035623949	0.01616093171392541	-0.06223820795618423	0.4622830810018609	-0.023011742144276925	-0.051989820119430985
43	1.4666666666666603	0.4985126879453702	-0.019323675489361758	-0.16807101212218828	0.49574610307880884	-0.0240894919476885	-0.14576332282765006	0.4854214620278038	-0.03126207110089996	-0.1172891960551076	0.4796862980552663	-0.03162294877293281	-0.07305269911520584	0.5611556205779692	0.051789612245965344	-0.16539249998444402	0.5512985293394713	0.039971003776791636	-0.15584481722011306	0.5352311739700214	0.026427862623603304	-0.1420450617100822	0.5108611699065494	0.002879841022015217	-0.11625301497862839	0.5729514485480912	0.07457192329365425	-0.14059582690476127	0.5628393913847888	0.06147382235735421	-0.13323470934092635	0.5429137510290426	0.04425750034461495	-0.12074564761607562	0.5161860028481622	0.01532245498418483	-0.0996615648006127	0.5751585626115366	0.07738267698337564	-0.11110422417144042	0.5632108803770173	0.06559585478372587	-0.1045221491447644	0.5457304877061582	0.050139199291717174	-0.09582113471689846	0.523061421174284	0.019690961723779488	-0.08190211587288859	0.5728860532950215	0.06991302882599937	-0.07678168179029132	0.5611723204578151	0.05806055721395409	-0.0728692171317658	0.5462240891312818	0.04387513369461016	-0.06885223333975221	0.5240225779179813	0.016245191365215295	-0.06217670806304104	0.4622830810018609	-0.023011742144276925	-0.051989820119430985
45	1.5000000000000004	0.4987443192239136	-0.01935346904969326	-0.16802016354581267	0.4959074560471223	-0.024112199376881582	-0.14571978926668308	0.4855198571698862	-0.03127803070650792	-0.11726686936518635	0.47970331051495707	-0.031617570008453555	-0.0730408306767229	0.5615267330238731	0.051674143175471365	-0.16515140789304475	0.5515357186780321	0.039929327746274335	-0.15565198986480266	0.535350973547399	0.026453231731307203	-0.14192396399609736	0.5109064504892377	0.0028935080305220184	-0.11621325016700124	0.5734625511380737	0.07421388383586314	-0.1404137364113415	0.5632159767630549	0.061208849234463236	-0.1330736554449217	0.5431214341439304	0.04414790336033381	-0.12064212163737315	0.5162259351099379	0.015331219553954	-0.09960931899208542	0.5755553970305879	0.07711943565980584	-0.11088691036906992	0.5635027699554074	0.06542146695295992	-0.10433773418268721	0.5458872751630789	0.05008508421864266	-0.09569657182754154	0.5230761477639386	0.019716635900567048	-0.08183545183193591	0.5731112959054397	0.06980525509530056	-0.07644231315599775	0.561347460980428	0.057979938573824774	-0.07259860699865667	0.5463332561256148	0.043843002633295325	-0.06865745059588885	0.5240120308147099	0.016278110566618653	-0.06211351623097633	0.462283081001861	-0.023011742144276925	-0.051989820119430985
46	1.5333333333333339	0.4990091206220395	-0.01939763723027499	-0.16796107665125337	0.4960883212211403	-0.024146743654741454	-0.14566948812488767	0.4856262117042802	-0.031303557735840815	-0.1172416096133666	0.47972058502129333	-0.03161597053381482	-0.07302717790012553	0.5619829905086161	0.051480269753979346	-0.1648927348746097	0.5518338296981635	0.039829293079978956	-0.15544555130565804	0.5355043814128184	0.02644664068392577	-0.14179771021108717	0.510953305180831	0.0029030374909684298	-0.11617390295018798	0.5740288308229047	0.07379506081809561	-0.14022900688533488	0.5636341408772422	0.060896021453156646	-0.13291018154274747	0.5433533643393904	0.0440127679049197	-0.12053862534929854	0.516266416823469	0.01533738664120543	-0.09955845126397822	0.5759929989668027	0.07681070334634466	-0.11067286824058711	0.5638241608625181	0.06521517674191013	-0.10415649333136331	0.5460583715045412	0.050018751778016735	-0.09557597028176107	0.5230879342912773	0.019745205455745096	-0.08177045539441347	0.5733565103968261	0.06967434420655605	-0.07611254215913271	0.5615362724556667	0.057884211721742185	-0.07233434801312688	0.5464509874456323	0.04380311347956711	-0.06846538594814872	0.5239998217384578	0.01631411131675964	-0.06204795893398113	0.4622830810018609	-0.023011742144276925	-0.051989820119430985
47	1.5666666666666673	0.49927173632914135	-0.019453404374638716	-0.1679017073618848	0.49626664119324737	-0.024190490606067816	-0.14561876731214649	0.4857292403988054	-0.03133594522777616	-0.11721585086424627	0.4797374060665436	-0.03161698492795817	-0.07301280868362642	0.562448376828556	0.05125623425801229	-0.1646453491787831	0.5521399887023868	0.03970452109714895	-0.1552488042132445	0.5356614798217846	0.026424788526685616	-0.14167982190325185	0.5109968420073755	0.0029113454856262155	-0.11613750932512237	0.5745627069194027	0.07339243161774844	-0.14005502293747674	0.5640278129515883	0.060595997067876106	-0.1327565798228294	0.5435709831325494	0.04388430817954769	-0.12044207137731677	0.5163014197986908	0.015345770421113736	-0.09951193284000356	0.5764006403434265	0.07651663317822543	-0.11047856997848887	0.5641214869210157	0.06502114160255035	-0.10399196341862388	0.5462125614850699	0.04996205633829731	-0.09546703997417622	0.5230927173014333	0.019780051059689385	-0.08171057980862306	0.573575196305705	0.06956398517216988	-0.07579700272117956	0.5617021237425281	0.057807378153727496	-0.07208050715096131	0.5465527110081332	0.0437766118564894	-0.06827986116439078	0.5239831935791707	0.01635663560276779	-0.061983414843718665	0.4622830810018609	-0.023011742144276925	-0.051989820119430985
